<svg width="105" height="39" viewBox="0 0 105 39" fill="none" xmlns="http://www.w3.org/2000/svg">
<path d="M65.7168 0.506836C69.5709 0.523698 73.4343 0.673138 77.293 0.884766L78.9463 0.978516C83.0809 1.22604 87.1642 1.7931 91.1172 3.02539L91.9053 3.28125L91.9062 3.28125C94.6428 4.19977 97.1587 5.45787 99.248 7.4502L99.6602 7.85938C101.733 9.99398 102.909 12.5864 103.413 15.5254L103.505 16.1172L103.505 16.1182C103.841 18.519 103.825 20.9147 103.399 23.2959L103.309 23.7725C102.534 27.6066 100.591 30.5959 97.4814 32.7656L97.1768 32.9727C94.5587 34.7111 91.6516 35.7173 88.6025 36.4238L87.9912 36.5615C84.7814 37.2621 81.5355 37.7017 78.2656 37.8604L77.6113 37.8877C71.2462 38.1242 64.8833 38.2591 60.2881 38.3848L60.1709 38.3877C56.6568 38.3354 50.5024 38.3793 44.5762 38.415C39.3131 38.4468 34.2357 38.4717 31.3213 38.418L30.21 38.3896C24.9756 38.2089 19.7868 37.8043 14.7295 36.4873L13.7197 36.2119C10.9288 35.4119 8.31277 34.3065 6.04395 32.5195L5.59473 32.1533C3.24211 30.1629 1.75521 27.6388 1.06934 24.6289L0.942383 24.0205C0.259925 20.3911 0.314283 16.8194 1.47363 13.3535L1.7207 12.6621C2.79495 9.82694 4.6718 7.67098 7.16016 6.03613L7.15918 6.03516C9.78613 4.31422 12.6987 3.32222 15.7529 2.62109L16.3652 2.48438L16.3662 2.48438C19.3565 1.83592 22.3878 1.4723 25.4463 1.24316L26.7588 1.15234C34.382 0.663314 51.8004 0.505837 61.8906 0.5L65.7168 0.506836Z" stroke="#D80000"/>
<path d="M92.616 19.8395V24.7614H91.3589V16.5796H92.5734V17.858H92.6799C92.8717 17.4425 93.1629 17.1087 93.5535 16.8565C93.9441 16.6009 94.4484 16.473 95.0663 16.473C95.6203 16.473 96.105 16.5867 96.5205 16.8139C96.936 17.0377 97.2591 17.3786 97.4899 17.8367C97.7208 18.2912 97.8362 18.8665 97.8362 19.5625V24.7614H96.5791V19.6477C96.5791 19.005 96.4122 18.5043 96.0783 18.1456C95.7445 17.7834 95.2864 17.6023 94.7041 17.6023C94.3028 17.6023 93.9441 17.6893 93.6281 17.8633C93.3156 18.0373 93.0688 18.2912 92.8876 18.625C92.7065 18.9588 92.616 19.3636 92.616 19.8395Z" fill="#D80000"/>
<path d="M86.0588 24.9318C85.2704 24.9318 84.5904 24.7578 84.0187 24.4098C83.4505 24.0582 83.0119 23.5682 82.703 22.9396C82.3976 22.3075 82.2449 21.5724 82.2449 20.7344C82.2449 19.8963 82.3976 19.1577 82.703 18.5185C83.0119 17.8757 83.4416 17.375 83.992 17.0163C84.546 16.6541 85.1923 16.473 85.931 16.473C86.3571 16.473 86.7779 16.544 87.1934 16.6861C87.6089 16.8281 87.9871 17.0589 88.328 17.3786C88.6689 17.6946 88.9405 18.1136 89.143 18.6357C89.3454 19.1577 89.4466 19.8004 89.4466 20.5639V21.0966H83.1398V20.0099H88.1682C88.1682 19.5483 88.0758 19.1364 87.8912 18.7741C87.7101 18.4119 87.4508 18.1261 87.1135 17.9165C86.7797 17.707 86.3855 17.6023 85.931 17.6023C85.4302 17.6023 84.997 17.7266 84.6312 17.9751C84.269 18.2202 83.9903 18.5398 83.7949 18.9339C83.5996 19.3281 83.502 19.7507 83.502 20.2017V20.9261C83.502 21.544 83.6085 22.0678 83.8216 22.4975C84.0382 22.9237 84.3383 23.2486 84.7218 23.4723C85.1053 23.6925 85.551 23.8026 86.0588 23.8026C86.389 23.8026 86.6873 23.7564 86.9537 23.6641C87.2236 23.5682 87.4562 23.4261 87.6515 23.2379C87.8468 23.0462 87.9977 22.8082 88.1042 22.5241L89.3187 22.8651C89.1909 23.277 88.9761 23.6392 88.6742 23.9517C88.3724 24.2607 87.9995 24.5021 87.5556 24.6761C87.1117 24.8466 86.6128 24.9318 86.0588 24.9318ZM85.2917 15.4716L86.5915 13H88.0616L86.3997 15.4716H85.2917Z" fill="#D80000"/>
<path d="M80.326 13.8523V24.7614H79.0688V13.8523H80.326Z" fill="#D80000"/>
<path d="M73.7688 24.9318C72.9804 24.9318 72.3004 24.7578 71.7286 24.4098C71.1604 24.0582 70.7219 23.5682 70.4129 22.9396C70.1075 22.3075 69.9548 21.5725 69.9548 20.7344C69.9548 19.8963 70.1075 19.1577 70.4129 18.5185C70.7219 17.8757 71.1516 17.375 71.702 17.0163C72.256 16.6541 72.9023 16.473 73.6409 16.473C74.0671 16.473 74.4879 16.544 74.9033 16.6861C75.3188 16.8281 75.697 17.059 76.0379 17.3786C76.3788 17.6946 76.6505 18.1136 76.8529 18.6357C77.0553 19.1577 77.1565 19.8004 77.1565 20.5639V21.0966H70.8497V20.01H75.8781C75.8781 19.5483 75.7858 19.1364 75.6011 18.7742C75.42 18.4119 75.1608 18.1261 74.8234 17.9166C74.4896 17.707 74.0955 17.6023 73.6409 17.6023C73.1402 17.6023 72.707 17.7266 72.3412 17.9752C71.979 18.2202 71.7002 18.5398 71.5049 18.934C71.3096 19.3281 71.2119 19.7507 71.2119 20.2017V20.9261C71.2119 21.544 71.3185 22.0678 71.5315 22.4975C71.7482 22.9237 72.0482 23.2486 72.4318 23.4723C72.8153 23.6925 73.2609 23.8026 73.7688 23.8026C74.099 23.8026 74.3973 23.7564 74.6636 23.6641C74.9335 23.5682 75.1661 23.4261 75.3614 23.2379C75.5568 23.0462 75.7077 22.8082 75.8142 22.5242L77.0287 22.8651C76.9009 23.277 76.686 23.6392 76.3842 23.9517C76.0823 24.2607 75.7094 24.5021 75.2656 24.6761C74.8217 24.8466 74.3227 24.9318 73.7688 24.9318Z" fill="#D80000"/>
<path d="M60.7529 24.7614V13.8523H64.5669C65.3268 13.8523 65.9536 13.9837 66.4472 14.2465C66.9408 14.5057 67.3083 14.8555 67.5498 15.2958C67.7913 15.7326 67.912 16.2174 67.912 16.75C67.912 17.2188 67.8286 17.6058 67.6617 17.9112C67.4983 18.2166 67.2817 18.4581 67.0118 18.6357C66.7455 18.8132 66.4561 18.9446 66.1436 19.0299V19.1364C66.4774 19.1577 66.8129 19.2749 67.1503 19.4879C67.4877 19.701 67.77 20.0064 67.9972 20.4041C68.2245 20.8019 68.3382 21.2884 68.3382 21.8637C68.3382 22.4105 68.2139 22.9024 67.9653 23.3392C67.7167 23.7759 67.3243 24.1222 66.7881 24.3779C66.2519 24.6335 65.5541 24.7614 64.6947 24.7614H60.7529ZM62.074 23.5895H64.6947C65.5576 23.5895 66.1702 23.4226 66.5324 23.0888C66.8982 22.7514 67.0811 22.3431 67.0811 21.8637C67.0811 21.4943 66.987 21.1534 66.7987 20.8409C66.6105 20.5249 66.3424 20.2727 65.9944 20.0845C65.6464 19.8928 65.2345 19.7969 64.7586 19.7969H62.074V23.5895ZM62.074 18.6463H64.5242C64.922 18.6463 65.2806 18.5682 65.6002 18.412C65.9234 18.2557 66.1791 18.0355 66.3673 17.7514C66.559 17.4674 66.6549 17.1335 66.6549 16.75C66.6549 16.2706 66.488 15.864 66.1542 15.5302C65.8204 15.1928 65.2913 15.0242 64.5669 15.0242H62.074V18.6463Z" fill="#D80000"/>
<path d="M51.0637 24.9318C50.2753 24.9318 49.5953 24.7578 49.0235 24.4098C48.4554 24.0582 48.0168 23.5682 47.7079 22.9396C47.4025 22.3075 47.2498 21.5725 47.2498 20.7344C47.2498 19.8963 47.4025 19.1577 47.7079 18.5185C48.0168 17.8757 48.4465 17.375 48.9969 17.0163C49.5509 16.6541 50.1972 16.473 50.9358 16.473C51.362 16.473 51.7828 16.544 52.1983 16.6861C52.6137 16.8281 52.9919 17.059 53.3329 17.3786C53.6738 17.6946 53.9454 18.1136 54.1478 18.6357C54.3503 19.1577 54.4515 19.8004 54.4515 20.5639V21.0966H48.1446V20.01H53.1731C53.1731 19.5483 53.0807 19.1364 52.8961 18.7742C52.715 18.4119 52.4557 18.1261 52.1184 17.9166C51.7846 17.707 51.3904 17.6023 50.9358 17.6023C50.4351 17.6023 50.0019 17.7266 49.6361 17.9752C49.2739 18.2202 48.9951 18.5398 48.7998 18.934C48.6045 19.3281 48.5069 19.7507 48.5069 20.2017V20.9261C48.5069 21.544 48.6134 22.0678 48.8265 22.4975C49.0431 22.9237 49.3432 23.2486 49.7267 23.4723C50.1102 23.6925 50.5559 23.8026 51.0637 23.8026C51.3939 23.8026 51.6922 23.7564 51.9586 23.6641C52.2285 23.5682 52.4611 23.4261 52.6564 23.2379C52.8517 23.0462 53.0026 22.8082 53.1091 22.5242L54.3236 22.8651C54.1958 23.277 53.9809 23.6392 53.6791 23.9517C53.3772 24.2607 53.0044 24.5021 52.5605 24.6761C52.1166 24.8466 51.6177 24.9318 51.0637 24.9318Z" fill="#D80000"/>
<path d="M41.4064 24.9318C40.7245 24.9318 40.1226 24.7596 39.6006 24.4151C39.0786 24.0671 38.6702 23.5771 38.3755 22.945C38.0807 22.3093 37.9333 21.5583 37.9333 20.6918C37.9333 19.8324 38.0807 19.0867 38.3755 18.4546C38.6702 17.8225 39.0804 17.3342 39.6059 16.9897C40.1315 16.6453 40.7387 16.473 41.4277 16.473C41.9603 16.473 42.3811 16.5618 42.6901 16.7394C43.0026 16.9134 43.2405 17.1122 43.4039 17.336C43.5708 17.5561 43.7004 17.7372 43.7927 17.8793H43.8993V13.8523H45.1564V24.7614H43.9419V23.5043H43.7927C43.7004 23.6534 43.569 23.8416 43.3986 24.0689C43.2281 24.2926 42.9848 24.4933 42.6688 24.6708C42.3527 24.8448 41.9319 24.9318 41.4064 24.9318ZM41.5768 23.8026C42.0811 23.8026 42.5072 23.6712 42.8552 23.4084C43.2032 23.1421 43.4678 22.7745 43.6489 22.3058C43.83 21.8335 43.9206 21.2884 43.9206 20.6705C43.9206 20.0597 43.8318 19.5252 43.6542 19.0671C43.4767 18.6055 43.2139 18.2468 42.8659 17.9911C42.5179 17.7319 42.0882 17.6023 41.5768 17.6023C41.0441 17.6023 40.6003 17.739 40.2451 18.0125C39.8936 18.2823 39.629 18.6499 39.4515 19.1151C39.2775 19.5767 39.1905 20.0952 39.1905 20.6705C39.1905 21.2529 39.2792 21.782 39.4568 22.2578C39.6379 22.7301 39.9042 23.1066 40.2558 23.3871C40.6109 23.6641 41.0512 23.8026 41.5768 23.8026Z" fill="#D80000"/>
<path d="M25.7485 24.7613V23.8025L30.3934 17.8366V17.7514H25.8977V16.5795H32.0127V17.5809L27.4957 23.5042V23.5895H32.1619V24.7613H25.7485Z" fill="#D80000"/>
<path d="M22.4233 21.4162V16.5795H23.6804V24.7613H22.4233V23.3764H22.3381C22.1464 23.7919 21.8481 24.1452 21.4432 24.4364C21.0384 24.7241 20.527 24.8679 19.9091 24.8679C19.3978 24.8679 18.9432 24.756 18.5455 24.5323C18.1478 24.305 17.8353 23.9641 17.608 23.5096C17.3807 23.0515 17.2671 22.4744 17.2671 21.7784V16.5795H18.5242V21.6932C18.5242 22.2898 18.6911 22.7656 19.0249 23.1207C19.3623 23.4758 19.7919 23.6534 20.314 23.6534C20.6265 23.6534 20.9443 23.5735 21.2674 23.4137C21.5941 23.2539 21.8676 23.0089 22.0878 22.6786C22.3115 22.3483 22.4233 21.9275 22.4233 21.4162Z" fill="#D80000"/>
<path d="M9 24.7614V13.8523H10.321V23.5895H15.392V24.7614H9Z" fill="#D80000"/>
</svg>
