<svg width="110" height="111" viewBox="0 0 110 111" fill="none" xmlns="http://www.w3.org/2000/svg">
<circle cx="55" cy="56" r="55" fill="#3A31DA"/>
<g clip-path="url(#clip0_453_291)">
<path d="M54.1744 83.4093C54.1744 83.4093 7.22072 46.886 20.5978 29.4541C33.9748 12.0221 54.1757 83.408 54.1757 83.408L54.1744 83.4093Z" fill="#25D366"/>
<path d="M54.1743 83.612C54.1301 83.612 54.0858 83.5981 54.0492 83.5692C53.9316 83.4773 42.1802 74.298 32.2176 63.103C26.3584 56.5198 22.2524 50.5371 20.0137 45.3186C17.1947 38.7491 17.3362 33.3695 20.4359 29.3319C22.1286 27.1262 24.0311 26.2071 26.0891 26.5986C29.0674 27.1652 32.4072 30.5204 36.0176 36.5673C38.8872 41.3729 41.9426 47.8919 45.1004 55.9432C50.4742 69.6422 54.3336 83.2179 54.3715 83.3539C54.3956 83.4382 54.3627 83.5289 54.2894 83.578C54.2552 83.6006 54.2148 83.612 54.1756 83.612H54.1743ZM25.1852 26.9172C23.6025 26.9172 22.1172 27.8085 20.7595 29.5774C17.7559 33.4904 17.6308 38.7328 20.3879 45.1587C22.6089 50.3369 26.6921 56.2831 32.5223 62.8336C41.2966 72.6928 51.4615 80.9845 53.8027 82.8553C52.9911 80.0641 49.4402 68.1239 44.7186 56.088C41.5684 48.0581 38.5231 41.5605 35.6649 36.7738C32.1165 30.8314 28.8689 27.5416 26.0107 26.9965C25.7326 26.9436 25.457 26.9172 25.184 26.9172H25.1852Z" fill="#3A31DA"/>
<path d="M21.7141 28.2443L21.5735 28.3265L54.1009 83.4544L54.2415 83.3721L21.7141 28.2443Z" fill="#3A31DA" stroke="#3A31DA" stroke-width="0.5" stroke-linecap="round" stroke-linejoin="round"/>
<path d="M30.9195 44.081C30.9106 44.081 30.9018 44.0797 30.8929 44.0772L18.464 39.8672L18.5171 39.7136L30.8525 43.8921L32.5755 31.9292L32.7373 31.9519L31.0004 44.0117C30.9966 44.0357 30.9827 44.0571 30.9625 44.0697C30.9498 44.0772 30.9347 44.0823 30.9195 44.0823V44.081Z" fill="#3A31DA" stroke="#3A31DA" stroke-width="0.5" stroke-linecap="round" stroke-linejoin="round"/>
<path d="M38.5283 56.9755C38.5207 56.9755 38.5144 56.9755 38.5068 56.973L24.6797 53.332L24.7214 53.1746L38.4587 56.7917L39.9605 44.6387L40.1223 44.6588L38.6092 56.905C38.6066 56.929 38.594 56.9491 38.5738 56.963C38.5599 56.9718 38.5447 56.9768 38.5283 56.9768V56.9755Z" fill="#3A31DA" stroke="#3A31DA" stroke-width="0.5" stroke-linecap="round" stroke-linejoin="round"/>
<path d="M46.0904 69.7895C46.0828 69.7895 46.0739 69.7895 46.0664 69.7857L35.6499 66.6257L35.6979 66.4708L46.0133 69.6007L46.3381 59.9568L46.5012 59.9619L46.1725 69.7115C46.1725 69.7366 46.1586 69.7606 46.1384 69.7744C46.1245 69.7845 46.1081 69.7895 46.0904 69.7895Z" fill="#3A31DA" stroke="#3A31DA" stroke-width="0.5" stroke-linecap="round" stroke-linejoin="round"/>
<path d="M53.871 85.4929C53.871 85.4929 46.314 0.258098 75.7911 0.202702C109.996 0.139753 53.871 85.4917 53.871 85.4917V85.4929Z" fill="#25D366"/>
<path d="M77.8288 0.123883L53.7888 85.4722L53.9458 85.5161L77.9858 0.16775L77.8288 0.123883Z" fill="#3A31DA" stroke="#3A31DA" stroke-width="0.5" stroke-linecap="round" stroke-linejoin="round"/>
<path d="M71.0469 24.5553C71.0393 24.5553 71.0317 24.5553 71.0241 24.5516C71.0014 24.5453 70.9824 24.5289 70.9723 24.5062L63.4861 7.57157L63.6353 7.5061L71.0835 24.3526L86.7967 14.0944L86.8864 14.2304L71.0924 24.5415C71.0785 24.5503 71.0633 24.5553 71.0481 24.5553H71.0469Z" fill="#3A31DA" stroke="#3A31DA" stroke-width="0.5" stroke-linecap="round" stroke-linejoin="round"/>
<path d="M66.8865 39.3384C66.879 39.3384 66.8714 39.3384 66.8638 39.3346C66.8423 39.3283 66.8259 39.3145 66.8145 39.2943L57.4119 21.6899L57.556 21.6131L66.9194 39.1445L82.6971 30.4826L82.7754 30.6249L66.9257 39.327C66.9131 39.3333 66.9004 39.3371 66.8865 39.3371V39.3384Z" fill="#3A31DA" stroke="#3A31DA" stroke-width="0.5" stroke-linecap="round" stroke-linejoin="round"/>
<path d="M59.8428 64.3608C59.8365 64.3608 59.8289 64.3608 59.8226 64.3583C59.7986 64.352 59.7796 64.3369 59.7695 64.3142L53.2959 50.8052L53.4425 50.7347L59.8732 64.1556L71.1821 55.9696L71.2782 56.1006L59.8896 64.3444C59.8757 64.3545 59.8593 64.3595 59.8416 64.3595L59.8428 64.3608Z" fill="#3A31DA" stroke="#3A31DA" stroke-width="0.5" stroke-linecap="round" stroke-linejoin="round"/>
<path d="M63.5607 51.1515C63.5316 51.1515 63.5051 51.1364 63.4899 51.1112L54.4994 35.4468L54.641 35.3663L63.5974 50.9702L75.958 46.3182L76.0162 46.4706L63.591 51.1464C63.5822 51.1502 63.5721 51.1515 63.562 51.1515H63.5607Z" fill="#3A31DA" stroke="#3A31DA" stroke-width="0.5" stroke-linecap="round" stroke-linejoin="round"/>
<path d="M53.2756 84.5109C53.2756 84.5109 75.7507 40.7572 85.8296 52.7969C97.6707 66.9429 53.2756 84.5109 53.2756 84.5109Z" fill="#25D366"/>
<path d="M53.2757 84.7136C53.2188 84.7136 53.1644 84.691 53.1253 84.6469C53.0684 84.584 53.0557 84.4933 53.0949 84.4178C53.1366 84.3359 57.3437 76.1764 62.849 67.9703C66.0851 63.1472 69.1317 59.2506 71.9039 56.3902C75.3917 52.7894 78.4648 50.8191 81.0373 50.5333C82.9588 50.3193 84.6249 51.0369 85.9876 52.6661C87.8396 54.8794 88.4439 57.3155 87.7815 59.909C87.0546 62.7606 84.7829 65.8401 81.031 69.0619C78.0451 71.6264 74.1162 74.2905 69.3529 76.9809C61.2511 81.5574 53.4312 84.6683 53.3528 84.6985C53.3288 84.7086 53.3022 84.7124 53.2782 84.7124L53.2757 84.7136ZM81.6795 50.9035C81.4835 50.9035 81.2838 50.9148 81.0803 50.9375C78.6051 51.2119 75.6167 53.1407 72.1972 56.6709C69.4427 59.5137 66.4126 63.3914 63.189 68.1932C58.4675 75.2297 54.7029 82.2334 53.7118 84.1131C55.5789 83.3464 62.2637 80.5174 69.1532 76.6246C73.8924 73.9468 77.7986 71.2991 80.7643 68.7522C84.4505 65.5858 86.6779 62.5768 87.3845 59.8083C88.0115 57.3482 87.4363 55.033 85.6716 52.9254C84.5465 51.5808 83.2053 50.9035 81.6782 50.9035H81.6795Z" fill="#3A31DA"/>
<path d="M86.52 53.3708L53.2134 84.4443L53.3249 84.5628L86.6315 53.4893L86.52 53.3708Z" fill="#3A31DA" stroke="#3A31DA" stroke-width="0.5" stroke-linecap="round" stroke-linejoin="round"/>
<path d="M77.2511 62.3086C77.2296 62.3086 77.2081 62.2998 77.193 62.2834C77.1765 62.2658 77.1677 62.2419 77.1702 62.218L78.337 51.5354L78.4988 51.5531L77.3434 62.1386L87.0077 61.3958L87.0203 61.5582L77.2587 62.3086C77.2587 62.3086 77.2549 62.3086 77.2524 62.3086H77.2511Z" fill="#3A31DA" stroke="#3A31DA" stroke-width="0.5" stroke-linecap="round" stroke-linejoin="round"/>
<path d="M69.4059 69.5994C69.3844 69.5994 69.3641 69.5906 69.349 69.5755C69.3325 69.5591 69.3237 69.5377 69.3249 69.5151L69.7231 59.3449L69.8862 59.3512L69.4918 69.432L80.8235 68.8843L80.8311 69.0467L69.4096 69.5994C69.4096 69.5994 69.4071 69.5994 69.4059 69.5994Z" fill="#3A31DA" stroke="#3A31DA" stroke-width="0.5" stroke-linecap="round" stroke-linejoin="round"/>
<path d="M61.61 76.8449C61.5885 76.8449 61.5683 76.8361 61.5518 76.821C61.5354 76.8046 61.5266 76.7807 61.5278 76.7568L62.1194 69.0304L62.2825 69.043L61.6972 76.6737L70.5487 75.9724L70.5613 76.1348L61.6151 76.8437C61.6151 76.8437 61.6113 76.8437 61.6087 76.8437L61.61 76.8449Z" fill="#3A31DA" stroke="#3A31DA" stroke-width="0.5" stroke-linecap="round" stroke-linejoin="round"/>
</g>
<path d="M47.7594 102L36 78H74L64.4715 101.919L47.7594 102Z" fill="#FFCE00"/>
<defs>
<clipPath id="clip0_453_291">
<rect width="71" height="86" fill="white" transform="translate(18)"/>
</clipPath>
</defs>
</svg>
