<svg width="110" height="110" viewBox="0 0 110 110" fill="none" xmlns="http://www.w3.org/2000/svg">
<circle cx="55" cy="55" r="55" fill="#3A31DA"/>
<path d="M94.1036 56.2387C86.5488 75.6185 78.6655 85.8011 54.687 88.4289C43.8475 87.4435 37.935 84.4872 31.0371 79.5602C19.2122 66.7498 19.2122 63.2579 19.2122 53.6109C19.2122 36.7398 29.7232 29.6325 54.687 27.3332C76.4562 27.3332 94.1036 39.3676 94.1036 56.2387Z" fill="#FFCE00"/>
<path opacity="0.2" fill-rule="evenodd" clip-rule="evenodd" d="M51.6656 44.0756C50.4755 43.0028 49.3464 41.6242 48.6638 40.6741L48.8614 40.1044C49.4964 40.9882 50.9146 41.8581 52.0235 42.8577C52.5776 43.3572 52.8703 43.5913 53.6045 43.9581C54.1172 44.2142 55.2686 44.0634 55.5807 43.9581C56.6174 43.6082 57.7574 42.901 58.9404 42.0049C59.5309 41.5575 60.1309 41.4469 60.5214 41.0237C60.7171 40.8116 60.8613 41.1896 60.8613 40.4426C61.3608 39.8161 60.8613 40.4426 61.0589 40.1044C61.3608 39.8161 61.3622 39.8109 61.3608 39.8161L61.8027 40.2858C61.6976 40.6759 61.5225 40.9945 61.3607 41.2407C61.1889 41.5022 60.9804 41.7584 60.7531 42.0049C60.2975 42.4986 59.7202 43.0021 59.1002 43.4718C57.8623 44.4096 56.3892 45.261 55.252 45.6447C54.6946 45.8329 54.0793 45.6814 53.4862 45.3851C52.8854 45.085 52.2611 44.6123 51.6656 44.0756Z" fill="#DBDBE4"/>
<path fill-rule="evenodd" clip-rule="evenodd" d="M33.4233 82.0244L50.5017 58.9326C52.5104 56.2167 57.299 56.2167 59.3077 58.9326L76.8134 82.6021C71.3844 86.1204 64.4084 88.3492 54.9032 89.3909C45.2141 88.5101 39.4617 86.0546 33.4233 82.0244Z" fill="#F1F1F1"/>
<circle cx="37.9351" cy="55.2533" r="5.25554" fill="#070504" stroke="#070504" stroke-width="0.656943"/>
<path fill-rule="evenodd" clip-rule="evenodd" d="M57.4871 79.5699C58.6772 80.6427 59.8063 82.0212 60.4889 82.9714L60.2913 83.5411C59.6563 82.6573 58.2382 81.7874 57.1292 80.7878C56.5751 80.2883 56.2824 80.0542 55.5482 79.6874C55.0355 79.4312 53.8841 79.582 53.572 79.6874C52.5353 80.0372 51.3953 80.7444 50.2123 81.6406C49.6219 82.0879 49.0218 82.1985 48.6313 82.6218C48.4356 82.8338 48.2914 82.4559 48.2914 83.2029C47.7919 83.8293 48.2914 83.2029 48.0938 83.5411C47.7919 83.8293 47.7905 83.8345 47.7919 83.8293L47.35 83.3596C47.4551 82.9695 47.6302 82.651 47.792 82.4047C47.9638 82.1433 48.1723 81.887 48.3997 81.6406C48.8553 81.1468 49.4325 80.6433 50.0525 80.1736C51.2904 79.2358 52.7635 78.3845 53.9007 78.0007C54.4581 77.8126 55.0734 77.964 55.6665 78.2603C56.2673 78.5605 56.8916 79.0331 57.4871 79.5699Z" fill="#070504"/>
<path d="M54.248 71.3484V78.5748" stroke="#070504" stroke-width="1.97083"/>
<circle cx="71.439" cy="55.2533" r="5.25554" fill="#070504" stroke="#070504" stroke-width="0.656943"/>
<path d="M52.1636 63.4492C53.4641 62.0414 55.6887 62.0414 56.9892 63.4492L60.8617 67.6414C62.8051 69.7452 61.313 73.155 58.449 73.155H50.7038C47.8398 73.155 46.3476 69.7452 48.291 67.6414L52.1636 63.4492Z" fill="#070504"/>
<path d="M10.0743 52.913C9.11454 52.0767 9.18748 50.5635 10.2233 49.8234L13.6283 47.0415L20.1977 41.4575C27.0955 34.2311 29.3948 33.5742 34.3225 31.9318L28.4098 55.9102C26.767 63.1366 24.0677 69.8025 22.826 68.7206L10.0743 52.913Z" fill="#070504"/>
<path d="M99.3005 52.7526C100.26 51.9164 100.187 50.4032 99.1516 49.6631L95.7466 46.8812L89.1772 41.2972C82.2794 34.0708 79.9801 33.4138 75.0523 31.7715L80.965 55.7499C82.6078 62.9763 85.3071 69.6421 86.5488 68.5603L99.3005 52.7526Z" fill="#070504"/>
<circle cx="36.839" cy="51.6401" r="1.31389" fill="white"/>
<circle cx="70.3431" cy="51.6401" r="1.31389" fill="white"/>
</svg>
