<svg width="105" height="40" viewBox="0 0 105 40" fill="none" xmlns="http://www.w3.org/2000/svg">
<path d="M65.7168 0.756012C69.5709 0.772874 73.4343 0.922314 77.293 1.13394L78.9463 1.22769C83.0809 1.47522 87.1642 2.04227 91.1172 3.27457L91.9053 3.53043L91.9062 3.53043C94.6428 4.44894 97.1587 5.70704 99.248 7.69937L99.6602 8.10855C101.733 10.2432 102.909 12.8356 103.413 15.7746L103.505 16.3664L103.505 16.3673C103.841 18.7681 103.825 21.1639 103.399 23.5451L103.309 24.0216C102.534 27.8558 100.591 30.845 97.4814 33.0148L97.1768 33.2218C94.5587 34.9602 91.6516 35.9665 88.6025 36.673L87.9912 36.8107C84.7814 37.5113 81.5355 37.9509 78.2656 38.1095L77.6113 38.1369C71.2462 38.3734 64.8833 38.5083 60.2881 38.6339L60.1709 38.6369C56.6568 38.5845 50.5024 38.6285 44.5762 38.6642C39.3131 38.6959 34.2357 38.7209 31.3213 38.6671L30.21 38.6388C24.9756 38.4581 19.7868 38.0535 14.7295 36.7365L13.7197 36.4611C10.9288 35.661 8.31277 34.5556 6.04395 32.7687L5.59473 32.4025C3.24211 30.412 1.75521 27.888 1.06934 24.8781L0.942383 24.2697C0.259925 20.6403 0.314283 17.0686 1.47363 13.6027L1.7207 12.9113C2.79495 10.0761 4.6718 7.92016 7.16016 6.28531L7.15918 6.28433C9.78613 4.5634 12.6987 3.57139 15.7529 2.87027L16.3652 2.73355L16.3662 2.73355C19.3565 2.0851 22.3878 1.72148 25.4463 1.49234L26.7588 1.40152C34.382 0.91249 51.8004 0.755013 61.8906 0.749176L65.7168 0.756012Z" stroke="#3A31DA"/>
<path d="M76.8035 27.2492V15.2492H79.2035L80.5235 16.5892C81.4835 15.7092 82.6701 15.1425 84.0835 14.8892L84.3635 19.4292C84.1768 19.4292 83.9501 19.4559 83.6835 19.5092C83.4168 19.5625 83.1435 19.6292 82.8635 19.7092C82.5968 19.7892 82.3501 19.8892 82.1235 20.0092C81.8968 20.1159 81.7235 20.2425 81.6035 20.3892V27.2492H76.8035Z" fill="#3A31DA"/>
<path d="M68.8898 14.8892C72.7298 14.8892 74.6497 16.2092 74.6497 18.8492V27.2492H72.2498L70.8898 25.8892C70.6498 26.1559 70.3631 26.3959 70.0298 26.6092C69.7098 26.8225 69.3631 27.0025 68.9897 27.1492C68.6164 27.2959 68.2364 27.4092 67.8498 27.4892C67.4631 27.5692 67.0898 27.6092 66.7298 27.6092C66.0498 27.6092 65.4364 27.5359 64.8898 27.3892C64.3564 27.2559 63.9031 27.0359 63.5298 26.7292C63.1564 26.4225 62.8698 26.0159 62.6698 25.5092C62.4698 25.0025 62.3698 24.3825 62.3698 23.6492C62.3698 20.7692 64.5431 19.3292 68.8898 19.3292H69.8498V18.4692C69.5964 18.4559 69.3631 18.4425 69.1497 18.4292C68.9497 18.4159 68.7631 18.4092 68.5898 18.4092C66.7898 18.4092 65.2364 18.6292 63.9297 19.0692L63.3498 15.6292C64.9498 15.1359 66.7964 14.8892 68.8898 14.8892ZM67.2098 23.1292V24.1092H68.2098C68.9031 24.1092 69.3564 24.0292 69.5698 23.8692C69.7564 23.6959 69.8498 23.4892 69.8498 23.2492V22.1092H68.8698C68.2964 22.1092 67.8764 22.1692 67.6097 22.2892C67.3431 22.4092 67.2098 22.6892 67.2098 23.1292Z" fill="#3A31DA"/>
<path d="M49.7182 30.4892L50.3382 26.9092C51.7115 27.3758 53.3049 27.6092 55.1182 27.6092C55.3849 27.6092 55.6115 27.6025 55.7982 27.5892C55.9982 27.5892 56.1515 27.5825 56.2582 27.5692V26.7292C55.5382 26.7292 54.9515 26.7158 54.4982 26.6892C54.0449 26.6492 53.7049 26.5958 53.4782 26.5292C53.0249 26.4092 52.7382 26.2892 52.6182 26.1692C52.4715 26.0492 52.3849 25.9558 52.3582 25.8892C52.3315 25.8092 52.3182 25.6958 52.3182 25.5492L53.0382 23.4892C51.8915 23.2758 51.0182 22.8425 50.4182 22.1892C49.8182 21.5225 49.5182 20.4892 49.5182 19.0892C49.5182 17.7025 49.9915 16.6558 50.9382 15.9492C51.8849 15.2425 53.4182 14.8892 55.5382 14.8892C55.9249 14.8892 56.2849 14.9025 56.6182 14.9292C56.9515 14.9425 57.2715 14.9758 57.5782 15.0292L59.6782 13.4292L62.1982 15.8492L60.8182 17.4492C61.0315 17.9958 61.1382 18.7158 61.1382 19.6092C61.1382 20.2358 61.0649 20.7825 60.9182 21.2492C60.7715 21.7158 60.5249 22.1092 60.1782 22.4292C59.8449 22.7492 59.4049 23.0025 58.8582 23.1892C58.3115 23.3625 57.6315 23.4825 56.8182 23.5492L56.7182 24.1292C57.5849 24.1825 58.3182 24.2692 58.9182 24.3892C59.5182 24.4958 60.0049 24.6692 60.3782 24.9092C60.7515 25.1492 61.0182 25.4558 61.1782 25.8292C61.3515 26.2025 61.4382 26.6758 61.4382 27.2492C61.4382 28.2092 61.2449 28.9558 60.8582 29.4892C60.4715 30.0225 59.9649 30.4158 59.3382 30.6692C58.7249 30.9225 58.0249 31.0758 57.2382 31.1292C56.4649 31.1825 55.6849 31.2092 54.8982 31.2092C53.3115 31.2092 51.5849 30.9692 49.7182 30.4892ZM54.0382 19.0892V20.6492H54.7782C55.3515 20.6492 55.7715 20.5892 56.0382 20.4692C56.3049 20.3492 56.4382 20.0758 56.4382 19.6492V18.0892H55.6782C55.1049 18.0892 54.6849 18.1492 54.4182 18.2692C54.1649 18.3892 54.0382 18.6625 54.0382 19.0892Z" fill="#3A31DA"/>
<path d="M35.718 21.2492C35.718 19.1025 36.218 17.5092 37.218 16.4692C38.218 15.4159 39.838 14.8892 42.078 14.8892C44.318 14.8892 45.938 15.4159 46.938 16.4692C47.938 17.5092 48.438 19.1025 48.438 21.2492C48.438 23.3959 47.938 24.9959 46.938 26.0492C45.938 27.0892 44.318 27.6092 42.078 27.6092C39.8914 27.6092 38.2847 27.0959 37.258 26.0692C36.2314 25.0425 35.718 23.4359 35.718 21.2492ZM40.878 19.4092V24.1092H41.618C42.2047 24.1092 42.6247 24.0492 42.878 23.9292C43.1447 23.8092 43.278 23.5292 43.278 23.0892V18.3892H42.538C41.9514 18.3892 41.5247 18.4492 41.258 18.5692C41.0047 18.6892 40.878 18.9692 40.878 19.4092Z" fill="#3A31DA"/>
<path d="M33.7925 27.2492H28.9925V21.9492H25.3925V27.2492H20.5925V12.2492H25.3925V17.5492H28.9925V12.2492H33.7925V27.2492Z" fill="#3A31DA"/>
</svg>
