<svg width="105" height="40" viewBox="0 0 105 40" fill="none" xmlns="http://www.w3.org/2000/svg">
<path d="M65.7168 0.756012C69.5709 0.772874 73.4343 0.922314 77.293 1.13394L78.9463 1.22769C83.0809 1.47522 87.1642 2.04227 91.1172 3.27457L91.9053 3.53043L91.9062 3.53043C94.6428 4.44894 97.1587 5.70704 99.248 7.69937L99.6602 8.10855C101.733 10.2432 102.909 12.8356 103.413 15.7746L103.505 16.3664L103.505 16.3673C103.841 18.7681 103.825 21.1639 103.399 23.5451L103.309 24.0216C102.534 27.8558 100.591 30.845 97.4814 33.0148L97.1768 33.2218C94.5587 34.9602 91.6516 35.9665 88.6025 36.673L87.9912 36.8107C84.7814 37.5113 81.5355 37.9509 78.2656 38.1095L77.6113 38.1369C71.2462 38.3734 64.8833 38.5083 60.2881 38.6339L60.1709 38.6369C56.6568 38.5845 50.5024 38.6285 44.5762 38.6642C39.3131 38.6959 34.2357 38.7209 31.3213 38.6671L30.21 38.6388C24.9756 38.4581 19.7868 38.0535 14.7295 36.7365L13.7197 36.4611C10.9288 35.661 8.31277 34.5556 6.04395 32.7687L5.59473 32.4025C3.24211 30.412 1.75521 27.888 1.06934 24.8781L0.942383 24.2697C0.259925 20.6403 0.314283 17.0686 1.47363 13.6027L1.7207 12.9113C2.79495 10.0761 4.6718 7.92016 7.16016 6.28531L7.15918 6.28433C9.78613 4.5634 12.6987 3.57139 15.7529 2.87027L16.3652 2.73355L16.3662 2.73355C19.3565 2.0851 22.3878 1.72148 25.4463 1.49234L26.7588 1.40152C34.382 0.91249 51.8004 0.755013 61.8906 0.749176L65.7168 0.756012Z" stroke="#3A31DA"/>
<path d="M64.3326 15.48C65.3593 14.92 66.766 14.64 68.5526 14.64C70.3526 14.64 71.9993 14.8867 73.4926 15.38L72.9326 18.64C72.306 18.4533 71.686 18.32 71.0726 18.24C70.4593 18.16 69.8326 18.12 69.1926 18.12C69.006 18.12 68.7726 18.1267 68.4926 18.14C68.226 18.1533 67.9193 18.18 67.5726 18.22V18.98C68.306 18.98 69.0593 19.02 69.8326 19.1C70.606 19.1667 71.306 19.34 71.9326 19.62C72.5726 19.8867 73.0926 20.2933 73.4926 20.84C73.906 21.3733 74.1126 22.1067 74.1126 23.04C74.1126 23.6933 74.0393 24.28 73.8926 24.8C73.746 25.3067 73.5193 25.7133 73.2126 26.02C72.8926 26.3267 72.5593 26.5733 72.2126 26.76C71.8793 26.9467 71.4393 27.08 70.8926 27.16C70.466 27.2267 70.006 27.2733 69.5126 27.3C69.0326 27.34 68.5126 27.36 67.9526 27.36C65.9926 27.36 64.1993 27.1267 62.5726 26.66L63.1726 23.26C63.8526 23.46 64.5526 23.6133 65.2726 23.72C65.9926 23.8267 66.746 23.88 67.5326 23.88C67.8926 23.88 68.2326 23.8733 68.5526 23.86C68.886 23.8467 69.206 23.82 69.5126 23.78V23.02C68.2326 23.02 67.1593 22.94 66.2926 22.78C65.4393 22.6067 64.746 22.3467 64.2126 22C63.6926 21.6533 63.3193 21.2 63.0926 20.64C62.8793 20.08 62.7726 19.4133 62.7726 18.64C62.7726 17.0933 63.2926 16.04 64.3326 15.48Z" fill="#3A31DA"/>
<path d="M54.9222 18.1H53.7222V15H54.9222V13.08L59.7222 11.88V15H61.3822V18.1H59.7222V23.56C59.9222 23.6 60.1422 23.64 60.3822 23.68C60.6222 23.7067 60.8755 23.7267 61.1422 23.74L60.9222 27.26C58.7355 27.26 57.3088 27.14 56.6422 26.9C56.0822 26.7 55.6555 26.4467 55.3622 26.14C55.0688 25.82 54.9222 25.3533 54.9222 24.74V18.1Z" fill="#3A31DA"/>
<path d="M45.5675 22.92V23.76C45.8075 23.7867 46.0475 23.8067 46.2875 23.82C46.5275 23.8333 46.7675 23.84 47.0075 23.84C48.5008 23.84 50.0075 23.6 51.5275 23.12L52.0875 26.64C50.2875 27.12 48.5141 27.36 46.7675 27.36C44.5275 27.36 42.9075 26.84 41.9075 25.8C40.9075 24.7467 40.4075 23.1467 40.4075 21C40.4075 18.8533 40.9075 17.26 41.9075 16.22C42.9208 15.1667 44.5408 14.64 46.7675 14.64C47.8875 14.64 48.8208 14.7133 49.5675 14.86C50.3141 14.9933 50.9141 15.2267 51.3675 15.56C51.8341 15.88 52.1608 16.32 52.3475 16.88C52.5475 17.4267 52.6475 18.12 52.6475 18.96C52.6475 19.6533 52.5275 20.2533 52.2875 20.76C52.0608 21.2533 51.6741 21.66 51.1275 21.98C50.5808 22.3 49.8541 22.54 48.9475 22.7C48.0408 22.8467 46.9141 22.92 45.5675 22.92ZM45.5675 19.16V20.14H46.5475C47.1341 20.14 47.5541 20.08 47.8075 19.96C48.0741 19.84 48.2075 19.56 48.2075 19.12V18.14H47.2275C46.6408 18.14 46.2141 18.2 45.9475 18.32C45.6941 18.44 45.5675 18.72 45.5675 19.16Z" fill="#3A31DA"/>
<path d="M26.6101 30.96V15H29.0101L29.8901 16.2C30.5968 15.16 31.9034 14.64 33.8101 14.64C34.7701 14.64 35.5768 14.8133 36.2301 15.16C36.8834 15.5067 37.4101 15.9733 37.8101 16.56C38.2234 17.1333 38.5168 17.8067 38.6901 18.58C38.8768 19.3533 38.9701 20.16 38.9701 21C38.9701 21.8133 38.8901 22.58 38.7301 23.3C38.5701 24.02 38.3034 24.66 37.9301 25.22C37.5568 25.7667 37.0634 26.2 36.4501 26.52C35.8368 26.84 35.0768 27 34.1701 27H31.4101V30.6L26.6101 30.96ZM31.4101 19.04V23.86H32.1501C32.7368 23.86 33.1568 23.8 33.4101 23.68C33.6768 23.56 33.8101 23.28 33.8101 22.84V18.14H33.0701C32.7234 18.14 32.4434 18.1533 32.2301 18.18C32.0168 18.2067 31.8301 18.2933 31.6701 18.44C31.5101 18.5733 31.4234 18.7733 31.4101 19.04Z" fill="#3A31DA"/>
<path d="M78.9148 3.83349C78.9613 3.86495 78.9979 3.88036 79.0363 3.81958C79.0761 3.75603 79.1165 3.76218 79.161 3.82953C79.1803 3.85875 79.2018 3.88621 79.2197 3.91628C79.2364 3.94452 79.2494 3.97501 79.2692 4.01493C79.3494 3.99386 79.4145 3.93753 79.4716 3.8691C79.4782 3.86129 79.4761 3.84554 79.483 3.83939C79.5648 3.76593 79.6428 3.68688 79.7315 3.62331C79.8086 3.56788 79.8737 3.59638 79.9202 3.68178C79.9351 3.70921 79.9615 3.72997 79.992 3.76426C79.9677 3.76117 79.9523 3.75671 79.9378 3.7587C79.9261 3.7602 79.9102 3.76773 79.9064 3.77699C79.903 3.78633 79.9087 3.8049 79.9169 3.81156C79.994 3.87692 79.9945 3.87627 80.0218 3.95199C80.0299 3.93596 80.0358 3.91783 80.0473 3.90416C80.0655 3.88194 80.087 3.86246 80.1068 3.84179C80.1145 3.86708 80.1332 3.89502 80.1285 3.91775C80.0841 4.1264 80.0373 4.33489 79.9868 4.54213C79.9502 4.69168 79.9085 4.84 79.8653 4.98759C79.8569 5.01608 79.833 5.04241 79.81 5.0631C79.7618 5.1059 79.7233 5.10332 79.7112 5.01676C79.6849 5.03666 79.6667 5.05067 79.6375 5.07299C79.6926 5.10417 79.7336 5.12729 79.7771 5.15176C79.7584 5.22977 79.7397 5.3289 79.7091 5.42436C79.6985 5.45702 79.6571 5.47955 79.6299 5.50665C79.6212 5.50535 79.6125 5.50405 79.6038 5.50275C79.6181 5.54098 79.6333 5.579 79.6459 5.61798C79.6497 5.62984 79.6501 5.64754 79.6437 5.65655C79.6001 5.71765 79.5729 5.78385 79.5606 5.85792C79.5537 5.90004 79.5455 5.9489 79.5195 5.97903C79.4457 6.06495 79.453 6.17849 79.4061 6.27282C79.3355 6.41422 79.2701 6.55807 79.2023 6.70092C79.1792 6.74974 79.1579 6.79938 79.1329 6.84693C79.0591 6.98679 78.9832 7.12576 78.9089 7.26591C78.8661 7.34674 78.8253 7.42884 78.7818 7.50912C78.7692 7.53229 78.7479 7.55104 78.7346 7.57404C78.7096 7.61614 78.6866 7.65989 78.6641 7.70336C78.654 7.72245 78.6488 7.74427 78.6371 7.76218C78.5552 7.88839 78.4708 8.01241 78.3909 8.13989C78.3427 8.21708 78.3037 8.29999 78.2568 8.37827C78.159 8.54134 78.0582 8.70249 77.9605 8.86556C77.8356 9.07333 77.7139 9.28264 77.5887 9.49033C77.5263 9.59385 77.4564 9.6932 77.395 9.79735C77.3495 9.87479 77.3176 9.96058 77.2697 10.0363C77.2126 10.1262 77.145 10.2093 77.0752 10.3048C77.0708 10.3295 77.0735 10.3771 77.054 10.4127C76.9749 10.5587 76.885 10.6986 76.8066 10.8448C76.7118 11.0215 76.6397 11.2118 76.5302 11.3779C76.3926 11.5869 76.3252 11.8323 76.1737 12.0321C76.1479 12.0662 76.1245 12.1017 76.1027 12.1324C76.0745 12.1292 76.0324 12.114 76.0239 12.1249C75.9973 12.1592 75.9569 12.2183 75.9695 12.2409C76.0296 12.346 75.9466 12.3808 75.8928 12.4336C75.8653 12.4603 75.8416 12.4909 75.8163 12.5197C75.7503 12.5961 75.6836 12.672 75.6185 12.7494C75.5611 12.8174 75.5312 12.9095 75.439 12.9469C75.3896 12.9667 75.3442 12.9977 75.294 13.013C75.2699 13.0205 75.2278 13.0116 75.213 12.9936C75.1995 12.9779 75.2013 12.933 75.2147 12.9131C75.2536 12.8552 75.2436 12.825 75.1804 12.7947C75.1253 12.7682 75.1166 12.6805 75.1568 12.6252C75.2024 12.5622 75.1988 12.4988 75.1802 12.4264C75.1629 12.4347 75.1568 12.436 75.1539 12.44C75.1359 12.4611 75.1186 12.4827 75.101 12.5039C75.0943 12.4765 75.0788 12.4478 75.082 12.4216C75.0884 12.3688 75.105 12.3173 75.1218 12.247C75.1929 12.3422 75.2606 12.3127 75.3363 12.273C75.2938 12.2151 75.3089 12.1734 75.3547 12.121C75.4058 12.0625 75.4353 11.9851 75.4722 11.9146C75.4773 11.9045 75.4721 11.8888 75.4713 11.8643C75.401 11.9437 75.3873 12.0303 75.2978 12.048C75.2892 12.0498 75.2772 12.0868 75.2829 12.1007C75.3131 12.1736 75.2419 12.1917 75.2141 12.2324C75.2135 12.2334 75.1748 12.2187 75.1718 12.2066C75.1541 12.1383 75.1476 12.0706 75.2029 12.0491C75.2314 11.9726 75.2548 11.9188 75.2717 11.8631C75.2837 11.8225 75.2827 11.7777 75.2958 11.7379C75.3828 11.4741 75.4721 11.2109 75.5602 10.9474C75.595 10.8432 75.6264 10.7381 75.6607 10.6337C75.7243 10.4418 75.7857 10.2493 75.8543 10.0589C75.9038 9.92263 75.9637 9.78999 76.019 9.65547C76.0532 9.57334 76.0882 9.49103 76.1219 9.40881C76.1918 9.23947 76.2577 9.06879 76.3315 8.90116C76.4014 8.7416 76.4795 8.58555 76.5534 8.42733C76.6056 8.31552 76.6545 8.20254 76.7085 8.09155C76.7303 8.04633 76.7612 8.00564 76.7879 7.96278C76.7935 7.95397 76.8056 7.94592 76.8061 7.93706C76.8145 7.79091 76.906 7.68029 76.9655 7.55577C77.0366 7.40745 77.1046 7.25758 77.1782 7.11025C77.2649 6.93632 77.3546 6.7643 77.445 6.59245C77.4609 6.56223 77.4932 6.53988 77.5057 6.50887C77.5258 6.45934 77.5282 6.40205 77.5513 6.35443C77.5875 6.28021 77.6388 6.21313 77.676 6.13918C77.7201 6.05318 77.7562 5.96292 77.7958 5.87429C77.8408 5.77287 77.8894 5.67309 77.9301 5.56987C78.0096 5.36724 78.0836 5.16255 78.1617 4.95919C78.1751 4.92448 78.1984 4.8941 78.2132 4.86012C78.2342 4.81159 78.2509 4.76126 78.2701 4.7123C78.2978 4.64231 78.3241 4.57161 78.3542 4.50298C78.3938 4.41315 78.4334 4.32295 78.4781 4.23556C78.5117 4.17049 78.5534 4.10932 78.5915 4.04652C78.5928 4.04411 78.5968 4.04232 78.5968 4.04075C78.5769 3.923 78.6636 3.84996 78.7097 3.75858C78.7476 3.68361 78.7575 3.5949 78.7924 3.51802C78.8137 3.47153 78.8551 3.43101 78.895 3.39678C78.9315 3.36526 78.952 3.39401 78.9621 3.43163C78.9753 3.47973 78.9916 3.52743 79.0039 3.57572C79.0076 3.58988 79.0059 3.60825 79.0006 3.62223C78.9737 3.69202 78.9442 3.76119 78.9148 3.83349ZM78.0428 5.9178C78.0235 5.94796 78.0027 5.97269 77.9896 6.00122C77.9518 6.08366 77.9173 6.16763 77.8817 6.25097C77.8734 6.27088 77.8632 6.29034 77.8583 6.31105C77.8424 6.37723 77.8442 6.45153 77.7587 6.47837C77.7452 6.48256 77.7361 6.514 77.732 6.53451C77.722 6.58606 77.7241 6.61472 77.7979 6.59916C77.8713 6.5835 77.8877 6.53272 77.9098 6.48132C77.9643 6.35363 78.0159 6.22449 78.0693 6.09616C78.0722 6.08903 78.0797 6.0838 78.0851 6.07766C78.1574 5.98981 78.1568 5.98733 78.0423 5.91845L78.0428 5.9178ZM77.7194 6.62297C77.677 6.68084 77.6394 6.72814 77.6069 6.77899C77.6013 6.7878 77.6113 6.81638 77.622 6.82403C77.6557 6.84813 77.7611 6.80496 77.7955 6.75926C77.8395 6.70138 77.7865 6.68908 77.7547 6.66505C77.7445 6.65712 77.7375 6.6453 77.7189 6.62325L77.7194 6.62297ZM78.0704 5.83685C78.0662 5.84445 78.0617 5.85196 78.0576 5.85919C78.0791 5.87881 78.098 5.90952 78.1226 5.91463C78.139 5.91816 78.1736 5.88932 78.1815 5.86813C78.2009 5.81649 78.2094 5.76108 78.2269 5.68824C78.1844 5.70701 78.144 5.7157 78.119 5.7402C78.1072 5.75184 78.1257 5.7938 78.1312 5.82639C78.1161 5.82902 78.0933 5.83294 78.0705 5.83648L78.0704 5.83685ZM75.48 12.2464C75.4719 12.2425 75.4634 12.2389 75.4553 12.235C75.4214 12.3031 75.3871 12.3711 75.3488 12.4476C75.4433 12.4256 75.4906 12.3459 75.48 12.2464ZM78.8664 3.87859C78.8488 3.92792 78.834 3.9619 78.8246 3.99759C78.8207 4.01229 78.8278 4.03002 78.8297 4.0465C78.8493 4.04336 78.8819 4.04609 78.8868 4.03553C78.9088 3.98921 78.9232 3.93909 78.9421 3.88459C78.9083 3.88197 78.8826 3.87973 78.8664 3.87859ZM75.5237 11.7631C75.5278 11.6984 75.5305 11.6498 75.5338 11.5986C75.4313 11.6425 75.4246 11.6835 75.5237 11.7631ZM79.4136 5.58659C79.416 5.60399 79.4188 5.62185 79.4213 5.63926C79.4555 5.63689 79.4898 5.63416 79.524 5.6318C79.5219 5.60785 79.5199 5.58352 79.5178 5.55957C79.4829 5.56839 79.4482 5.57767 79.4132 5.5865L79.4136 5.58659ZM78.3632 6.20054C78.4603 6.18862 78.4864 6.14521 78.4588 6.0268C78.4226 6.09281 78.3964 6.14046 78.3632 6.20054ZM78.1154 6.82217C78.1437 6.79183 78.17 6.76723 78.1919 6.73926C78.1999 6.72904 78.2 6.71069 78.1986 6.69669C78.1981 6.69226 78.1806 6.68533 78.172 6.6868C78.1265 6.69388 78.092 6.77749 78.1153 6.82254L78.1154 6.82217ZM78.7509 5.46542C78.7412 5.46035 78.7314 5.45528 78.7217 5.45021C78.6724 5.47633 78.6211 5.50117 78.6871 5.59791C78.7134 5.54361 78.7321 5.5047 78.7509 5.46542ZM77.6141 6.91715C77.6024 6.90573 77.591 6.89441 77.5794 6.88263C77.5639 6.90472 77.5394 6.92544 77.536 6.94926C77.5336 6.96745 77.554 6.99657 77.5721 7.00599C77.5825 7.0116 77.6163 6.99154 77.6248 6.9756C77.6319 6.96206 77.6184 6.93693 77.6141 6.91715ZM78.305 5.56309C78.2588 5.5876 78.219 5.60855 78.1794 5.62996L78.1988 5.66159C78.236 5.63882 78.2728 5.61596 78.3096 5.59273C78.3105 5.59217 78.3088 5.58785 78.305 5.56309ZM78.2258 6.4491C78.3173 6.46085 78.3571 6.42855 78.3585 6.35071C78.3157 6.38266 78.2748 6.41276 78.2258 6.4491ZM75.2498 12.696C75.2701 12.6359 75.2874 12.5834 75.3091 12.5186C75.2173 12.567 75.2134 12.6243 75.2498 12.696Z" fill="#3A31DA"/>
<path d="M81.4032 14.6727C81.3271 14.5657 81.4077 14.5479 81.4689 14.5113C81.626 14.4172 81.7779 14.3137 81.9361 14.2218C82.0501 14.1556 82.1709 14.1005 82.29 14.0426C82.4392 13.9701 82.5947 13.9123 82.7315 13.813C82.7989 13.7638 82.8863 13.7386 82.968 13.7144C83.0198 13.699 83.0825 13.6937 83.1166 13.7703C83.0983 13.7745 83.0836 13.7757 83.0713 13.7813C83.0558 13.7886 83.041 13.7983 83.0285 13.8098C83.026 13.8119 83.0346 13.8347 83.0392 13.8351C83.0569 13.8365 83.0767 13.837 83.0923 13.8306C83.1444 13.809 83.1952 13.7848 83.2457 13.7602C83.2568 13.755 83.2728 13.742 83.2718 13.7348C83.2703 13.7215 83.2599 13.7057 83.2484 13.6983C83.2241 13.6823 83.197 13.6711 83.1705 13.6577C83.1335 13.7142 83.1069 13.7125 83.0642 13.6425C83.1303 13.5887 83.194 13.6153 83.2571 13.6472C83.2847 13.6612 83.3118 13.6755 83.339 13.6895C83.3544 13.6576 83.3699 13.6257 83.387 13.5903C83.3284 13.5881 83.283 13.5866 83.221 13.5842C83.2635 13.5276 83.2817 13.4744 83.3503 13.4819C83.3591 13.4828 83.3703 13.4769 83.378 13.4709C83.433 13.429 83.4875 13.3861 83.5425 13.3442C83.6129 13.2907 83.6778 13.2269 83.7552 13.1879C83.833 13.1491 83.8995 13.0657 84.0097 13.107C84.037 13.1174 84.0997 13.0925 84.1141 13.0663C84.1664 12.9725 84.2461 12.9239 84.3364 12.8733C84.4096 12.8325 84.467 12.7642 84.5576 12.7534C84.6479 12.6085 84.8199 12.5731 84.9411 12.4688C85.0002 12.4181 85.0639 12.3712 85.1301 12.3296C85.1684 12.3055 85.2228 12.2548 85.2433 12.352C85.2449 12.3602 85.2667 12.3638 85.2794 12.3696C85.2816 12.3557 85.2908 12.3368 85.2852 12.3292C85.2294 12.2564 85.2743 12.221 85.3344 12.192C85.456 12.1336 85.58 12.08 85.699 12.0174C85.8114 11.9583 85.9182 11.8881 86.0289 11.8259C86.0651 11.8056 86.106 11.7947 86.1449 11.7794C86.1591 11.7738 86.1784 11.7734 86.1878 11.7635C86.2781 11.6675 86.3827 11.5967 86.5151 11.5733C86.5265 11.5714 86.5422 11.5614 86.5461 11.5514C86.5716 11.4891 86.6084 11.4725 86.6692 11.5274C86.6946 11.49 86.7145 11.4561 86.7394 11.4257C86.7516 11.4106 86.7713 11.4001 86.7896 11.3924C86.7935 11.3906 86.8148 11.4113 86.8134 11.4188C86.8095 11.4382 86.7974 11.456 86.7846 11.4835C86.7994 11.5116 86.8201 11.551 86.8497 11.6069C86.8809 11.5389 86.9026 11.4906 86.9264 11.4388C86.9135 11.4306 86.9002 11.4255 86.8926 11.4163C86.8824 11.4037 86.8761 11.3873 86.8678 11.3728C86.887 11.3712 86.9123 11.3604 86.9244 11.3688C87.0573 11.4624 87.197 11.4212 87.3368 11.396C87.3638 11.3911 87.3909 11.389 87.4184 11.387C87.4893 11.3817 87.5602 11.3733 87.6314 11.3731C87.7105 11.3729 87.795 11.4006 87.8668 11.3802C87.9545 11.3555 88.0323 11.3886 88.1135 11.3826C88.1616 11.3793 88.2085 11.3471 88.2556 11.3479C88.2942 11.3485 88.3472 11.369 88.3671 11.3984C88.3961 11.4409 88.4362 11.4955 88.3638 11.5512C88.3187 11.5858 88.2835 11.6168 88.2223 11.6292C88.1598 11.6419 88.1048 11.6933 88.0473 11.7292C88.0395 11.7339 88.0319 11.7493 88.0339 11.7576C88.0679 11.8885 87.9507 11.9285 87.8907 12.0044C87.8463 12.0606 87.8009 12.126 87.7863 12.1936C87.7591 12.3169 87.6001 12.4125 87.4853 12.3592C87.4712 12.3527 87.4529 12.3557 87.4325 12.354C87.4699 12.4693 87.4641 12.4835 87.3648 12.5387C87.3531 12.5453 87.3346 12.5491 87.3302 12.559C87.2708 12.6976 87.1383 12.6432 87.0371 12.6705C87.0258 12.6737 87.0118 12.6653 86.9883 12.6765C87.0147 12.7004 87.0411 12.7243 87.078 12.7577C87.0418 12.7522 87.0199 12.7489 87.0079 12.7468C86.9836 12.7977 86.962 12.8437 86.9408 12.8879C86.8895 12.8572 86.8567 12.8373 86.8239 12.8177C86.8175 12.8247 86.8111 12.8318 86.8046 12.8393C86.8209 12.8678 86.8371 12.8963 86.8619 12.9398C86.8251 12.9579 86.784 12.9727 86.7486 12.9963C86.6885 13.0366 86.6327 13.0834 86.573 13.1251C86.5054 13.1722 86.4451 13.2215 86.345 13.1936C86.2528 13.1684 86.3297 13.2505 86.2998 13.2645C86.2438 13.3105 86.192 13.3634 86.1307 13.4003C86.0891 13.4255 86.034 13.4283 85.9856 13.4429C85.9662 13.4488 85.9328 13.4573 85.9315 13.4679C85.9153 13.586 85.8076 13.5899 85.7314 13.6334C85.716 13.6422 85.7015 13.6536 85.6878 13.6652C85.6137 13.728 85.5396 13.7908 85.4661 13.8541C85.4301 13.8853 85.3988 13.9244 85.3591 13.9497C85.2256 14.0334 85.0945 14.1236 84.9525 14.1889C84.8466 14.2374 84.7583 14.3069 84.663 14.3685C84.6417 14.3822 84.6114 14.3816 84.5881 14.3936C84.4985 14.441 84.384 14.4651 84.3184 14.5233C84.2544 14.5799 84.1877 14.6363 84.1173 14.6835C84.016 14.7519 83.9061 14.8077 83.7988 14.8668C83.7046 14.9185 83.6092 14.9692 83.5127 15.016C83.4618 15.0406 83.4059 15.055 83.3537 15.0769C83.3202 15.0911 83.2889 15.1106 83.2568 15.1287C83.2451 15.1353 83.2344 15.1519 83.2244 15.1514C83.1199 15.1448 83.0399 15.2093 82.9499 15.244C82.8969 15.2642 82.85 15.2999 82.799 15.3252C82.6861 15.3814 82.5712 15.4332 82.4589 15.4908C82.2328 15.6063 82.0099 15.7284 81.7823 15.8409C81.5831 15.9393 81.3802 16.0299 81.1772 16.1197C81.1243 16.143 81.0638 16.1488 81.0073 16.1642C80.9931 16.1679 80.9799 16.1772 80.968 16.1861C80.9512 16.1993 80.9387 16.2189 80.9204 16.2283C80.8145 16.2815 80.7072 16.3312 80.6009 16.3844C80.5729 16.3984 80.5493 16.422 80.5212 16.4364C80.453 16.4713 80.3834 16.5035 80.3138 16.5361C80.3068 16.5391 80.2941 16.5353 80.2907 16.5395C80.1962 16.6647 80.0451 16.6942 79.9129 16.745C79.7793 16.7963 79.6309 16.8166 79.4871 16.8322C79.3906 16.8427 79.3549 16.7779 79.3838 16.682C79.425 16.5472 79.3974 16.5023 79.2594 16.479C79.2327 16.4746 79.2049 16.475 79.179 16.4684C79.1535 16.4623 79.1252 16.4547 79.106 16.4384C79.0425 16.3837 79.0392 16.1866 79.1037 16.1329C79.3053 15.9658 79.5095 15.8024 79.713 15.6373C79.7867 15.5776 79.8576 15.5136 79.9348 15.459C79.9885 15.4211 80.0509 15.3957 80.1317 15.3525C80.1609 15.2649 80.3886 15.1177 80.4709 15.1468C80.4963 15.1158 80.5127 15.0798 80.5409 15.0635C80.6573 14.9956 80.7786 14.9367 80.8946 14.8687C80.9798 14.8187 81.0558 14.7529 81.1429 14.7077C81.1965 14.6799 81.2625 14.6754 81.324 14.6639C81.3432 14.6603 81.3641 14.6676 81.4015 14.6719L81.4032 14.6727ZM83.6349 14.7099C83.5846 14.5978 83.5723 14.5921 83.4804 14.651C83.4559 14.6666 83.442 14.6985 83.4198 14.7194C83.4037 14.7343 83.3832 14.7462 83.3626 14.7538C83.2797 14.7832 83.1903 14.8004 83.1138 14.8419C83.0518 14.8756 82.9963 14.908 82.923 14.9104C82.8307 14.9133 82.7875 14.9581 82.7826 15.0472C82.7364 15.049 82.6864 15.0422 82.6423 15.0547C82.5785 15.073 82.5167 15.102 82.4579 15.1336C82.4449 15.1407 82.4482 15.1774 82.4442 15.2007C82.4663 15.2017 82.4902 15.2094 82.5095 15.2027C82.5869 15.1751 82.6628 15.144 82.7388 15.1126C82.767 15.1009 82.7923 15.0769 82.8208 15.0724C82.8944 15.0607 82.9747 15.0686 83.0052 14.9739C83.0094 14.9612 83.0419 14.9545 83.0624 14.9504C83.099 14.9432 83.1366 14.9396 83.1738 14.9345C83.2489 14.9247 83.3108 14.9016 83.3017 14.8287C83.3598 14.8227 83.4128 14.817 83.4682 14.8111C83.452 14.6501 83.5735 14.7409 83.6344 14.7102L83.6349 14.7099ZM83.3063 14.458C83.2309 14.4185 82.9811 14.5091 82.9635 14.5812C83.0877 14.5687 83.1977 14.5341 83.3063 14.458ZM82.424 14.8687C82.4512 14.8643 82.4624 14.865 82.472 14.8606C82.5316 14.8342 82.5911 14.8078 82.6493 14.7788C82.6582 14.7743 82.6677 14.7527 82.6641 14.7464C82.6573 14.7342 82.6375 14.7169 82.6293 14.7201C82.5614 14.744 82.4941 14.7702 82.4291 14.8015C82.4198 14.8059 82.4253 14.8416 82.424 14.8687ZM86.2975 11.9102C86.2727 11.873 86.2562 11.826 86.2387 11.8257C86.1962 11.8249 86.1524 11.843 86.1117 11.8594C86.1004 11.8638 86.0933 11.8918 86.095 11.9078C86.0959 11.917 86.1166 11.9302 86.1295 11.9321C86.1636 11.9364 86.1983 11.9372 86.2325 11.9349C86.2504 11.9337 86.2676 11.9222 86.2975 11.9102ZM84.6215 12.9017C84.5632 12.892 84.5169 12.8825 84.4707 12.878C84.4588 12.8768 84.4376 12.8901 84.4352 12.9004C84.4325 12.9115 84.4433 12.9317 84.4541 12.939C84.4914 12.9631 84.5315 12.9833 84.5753 13.0079C84.5892 12.976 84.5996 12.9523 84.6215 12.9017ZM83.4204 13.5174C83.4763 13.5308 83.5318 13.5457 83.588 13.556C83.599 13.5578 83.6199 13.5441 83.6236 13.5333C83.6274 13.5224 83.6186 13.5035 83.6098 13.4928C83.5446 13.4154 83.485 13.475 83.4205 13.5171L83.4204 13.5174ZM83.3309 14.3947C83.4487 14.4417 83.4804 14.4106 83.5671 14.3149C83.4923 14.3251 83.4244 14.3323 83.3572 14.3451C83.3465 14.3473 83.3409 14.3741 83.3305 14.3946L83.3309 14.3947ZM85.0226 12.4864C85.0436 12.536 85.059 12.5713 85.0811 12.6227C85.1091 12.5794 85.1232 12.5578 85.1332 12.5422C85.17 12.5471 85.1991 12.5513 85.2283 12.5552C85.2302 12.5439 85.2317 12.5329 85.2336 12.5217C85.1731 12.5115 85.1125 12.5013 85.0227 12.486L85.0226 12.4864ZM82.8883 14.6449C82.8264 14.5769 82.7768 14.6518 82.7254 14.6524C82.7109 14.6524 82.697 14.689 82.6832 14.7091C82.688 14.7118 82.6931 14.715 82.698 14.7177C82.7587 14.6944 82.8194 14.6714 82.8883 14.6449ZM83.6836 13.3874C83.676 13.398 83.668 13.4082 83.6604 13.4189C83.6829 13.4345 83.704 13.454 83.7287 13.4638C83.7401 13.4685 83.7594 13.4548 83.7748 13.4494C83.7441 13.4288 83.7139 13.4079 83.6832 13.3873L83.6836 13.3874ZM83.9164 13.2762C83.9279 13.2739 83.9393 13.2719 83.9508 13.2696C83.9707 13.252 83.9912 13.2351 84.0088 13.2154C84.01 13.2138 83.9853 13.1813 83.9805 13.1832C83.9556 13.1925 83.9299 13.2051 83.9121 13.2239C83.9041 13.2326 83.9145 13.2581 83.9164 13.2762ZM80.4174 16.3224C80.4373 16.2947 80.4519 16.2748 80.4789 16.2371C80.4174 16.2458 80.3761 16.2515 80.3202 16.2596C80.3588 16.2845 80.3842 16.3012 80.4174 16.3224Z" fill="#3A31DA"/>
<path d="M81.8364 21.4474C81.947 21.4481 82.0577 21.4531 82.1679 21.4486C82.2793 21.4441 82.3902 21.4303 82.5077 21.4202C82.5028 21.3818 82.4999 21.3593 82.496 21.3282C82.5548 21.3212 82.6097 21.2996 82.6512 21.3697C82.6735 21.4071 82.8266 21.4183 82.8841 21.3922C82.8779 21.3837 82.8718 21.3764 82.8671 21.3682C82.8581 21.352 82.8483 21.3356 82.8428 21.3179C82.8417 21.3145 82.8615 21.2985 82.8647 21.3C82.8822 21.3101 82.8998 21.3217 82.9126 21.3369C82.9299 21.3575 82.943 21.4009 82.9579 21.4009C83.0033 21.4009 83.0538 21.3942 83.0926 21.3726C83.1711 21.3289 83.2466 21.293 83.3402 21.3158C83.3664 21.3221 83.3976 21.3162 83.4253 21.31C83.4839 21.297 83.5416 21.2718 83.6001 21.2694C83.625 21.2683 83.6517 21.3118 83.6772 21.3343C83.7038 21.3395 83.7372 21.3405 83.7661 21.3521C83.8423 21.3821 83.9165 21.3612 83.9604 21.2923C83.9893 21.2468 84.1057 21.2196 84.1769 21.2476C84.152 21.2651 84.1276 21.2768 84.1114 21.2956C84.1017 21.3066 84.1043 21.3283 84.1015 21.3452C84.1178 21.3456 84.144 21.3523 84.1489 21.3449C84.1689 21.3153 84.2322 21.3187 84.2164 21.2574C84.2149 21.252 84.2757 21.2204 84.3085 21.2193C84.4499 21.2137 84.5913 21.2163 84.7326 21.2126C84.8031 21.2107 84.839 21.2338 84.867 21.3097C84.946 21.3227 85.0239 21.3359 85.1019 21.3483C85.1919 21.3628 85.2186 21.3509 85.2919 21.2574C85.3143 21.3468 85.3812 21.3531 85.4583 21.35C85.4699 21.2836 85.5094 21.2884 85.5623 21.3143C85.6913 21.3784 85.8301 21.387 85.9714 21.3799C86.0538 21.3757 86.1367 21.3807 86.2185 21.3741C86.2707 21.3702 86.3218 21.3527 86.3858 21.3388C86.535 21.4788 86.7184 21.4743 86.9183 21.3846C86.9169 21.5371 87.0428 21.4691 87.1127 21.4909C87.1844 21.5132 87.2666 21.5082 87.3436 21.5036C87.361 21.5027 87.3761 21.4559 87.3963 21.424C87.3968 21.4249 87.4174 21.4404 87.4229 21.4597C87.4379 21.5133 87.4571 21.5116 87.4953 21.4778C87.5202 21.4556 87.5552 21.4448 87.5972 21.4232C87.5921 21.4607 87.5886 21.4853 87.587 21.4982C87.6785 21.4838 87.7692 21.4679 87.8604 21.4562C87.8798 21.4538 87.9087 21.4587 87.9197 21.4715C87.955 21.5136 87.9948 21.5126 88.0431 21.5034C88.1398 21.4852 88.2323 21.5272 88.3241 21.5344C88.4266 21.5421 88.5355 21.6073 88.6411 21.5372C88.6578 21.5259 88.6856 21.5177 88.7029 21.5238C88.7977 21.5559 88.8909 21.538 88.9864 21.5296C89.0536 21.5234 89.1235 21.5401 89.1915 21.5502C89.2422 21.5576 89.2893 21.5896 89.3345 21.525C89.3482 21.5052 89.4153 21.5224 89.4582 21.5229C89.5273 21.5235 89.5962 21.5216 89.6653 21.5241C89.7285 21.5263 89.7995 21.5175 89.8185 21.6178C89.8564 21.5886 89.8843 21.5667 89.9126 21.545C89.9173 21.5465 89.922 21.5484 89.9267 21.5499C89.9179 21.5685 89.9066 21.5865 89.9011 21.6063C89.8886 21.6518 89.8324 21.7099 89.9324 21.7287C89.9394 21.7304 89.9504 21.7628 89.9462 21.7676C89.8745 21.8396 89.945 21.8932 89.9664 21.9542C89.973 21.9726 89.9728 22.0011 89.9625 22.0162C89.9239 22.0746 89.8853 22.1346 89.8359 22.1837C89.8083 22.2111 89.7604 22.218 89.7221 22.2343C89.7834 22.3361 89.8214 22.3409 89.9279 22.28C90.0095 22.2335 90.0554 22.2965 90.1059 22.3571C90.0797 22.3664 90.0588 22.3739 90.0378 22.3814C90.0445 22.3861 90.0509 22.3904 90.0576 22.3951C90.0183 22.4581 89.9796 22.5215 89.9389 22.5837C89.9321 22.5942 89.9146 22.6084 89.9066 22.6057C89.8088 22.5748 89.7425 22.6668 89.6507 22.6683C89.5643 22.6695 89.4789 22.7026 89.3924 22.7061C89.2454 22.712 89.0981 22.7033 88.9509 22.7052C88.8386 22.7068 88.7269 22.7192 88.6147 22.7204C88.4951 22.7219 88.3757 22.7156 88.2559 22.7127C88.2267 22.7119 88.1977 22.712 88.1688 22.7121C88.1021 22.7126 88.0355 22.7162 87.9689 22.7135C87.8468 22.7089 87.7241 22.7049 87.6022 22.6929C87.4925 22.6819 87.3841 22.656 87.2746 22.6462C87.2071 22.6402 87.1382 22.6538 87.0702 22.6551C87.0391 22.6558 87.0044 22.6553 86.9774 22.6422C86.9055 22.6074 86.8384 22.5824 86.7535 22.6066C86.7061 22.6199 86.6481 22.5962 86.5752 22.5866C86.5565 22.588 86.5139 22.6008 86.4771 22.5912C86.3667 22.5621 86.2595 22.5555 86.1436 22.5641C86.011 22.5738 85.8752 22.5397 85.7407 22.5263C85.688 22.5211 85.635 22.5186 85.5817 22.5187C85.4701 22.5193 85.3577 22.5147 85.2474 22.5262C85.1287 22.5384 85.0166 22.5276 84.8997 22.5047C84.822 22.4892 84.7341 22.5327 84.6499 22.5399C84.5736 22.5462 84.4961 22.5398 84.4194 22.5382C84.3875 22.5376 84.3554 22.5327 84.3233 22.5344C84.1811 22.5418 84.0389 22.5507 83.8968 22.5593C83.8913 22.5595 83.8844 22.5622 83.881 22.5598C83.7311 22.4473 83.5648 22.5685 83.4068 22.5272C83.3336 22.5081 83.2487 22.5358 83.1688 22.5394C83.1106 22.5422 83.0523 22.5408 82.994 22.5405C82.9858 22.5405 82.9772 22.5357 82.9702 22.5372C82.7988 22.5751 82.6289 22.5117 82.4574 22.5285C82.4446 22.5297 82.4279 22.5292 82.4195 22.5366C82.3629 22.5883 82.3064 22.5549 82.2464 22.544C82.1694 22.5303 82.0892 22.5271 82.011 22.5303C81.8653 22.536 81.7198 22.5536 81.5742 22.557C81.5188 22.5582 81.4693 22.5346 81.4047 22.5543C81.3358 22.5758 81.2521 22.5448 81.1748 22.5454C81.1191 22.5462 81.0636 22.5622 81.0076 22.5691C80.9339 22.578 80.8598 22.59 80.7856 22.591C80.6423 22.593 80.4989 22.5857 80.3558 22.5873C80.3118 22.5878 80.2678 22.6034 80.2247 22.615C80.057 22.6601 79.8918 22.6181 79.7253 22.6045C79.6877 22.6013 79.65 22.6036 79.6121 22.6016C79.5913 22.6005 79.562 22.6037 79.5508 22.5916C79.4663 22.4998 79.3595 22.4821 79.2413 22.4725C79.1679 22.4667 79.0973 22.4216 79.0268 22.3911C79.0179 22.3874 79.0094 22.356 79.0147 22.3502C79.0311 22.3323 79.0581 22.3047 79.0747 22.3087C79.1282 22.3207 79.1667 22.31 79.2051 22.2707C79.218 22.2574 79.2503 22.2616 79.2741 22.2603C79.3106 22.2581 79.3474 22.2579 79.388 22.2567C79.3824 22.2264 79.3689 22.1958 79.3768 22.1891C79.4409 22.1337 79.422 22.0725 79.4039 22.0041C79.3877 21.9427 79.4109 21.8982 79.4804 21.8742C79.5243 21.8593 79.5586 21.8171 79.5984 21.7883C79.6121 21.7783 79.6274 21.7702 79.6429 21.7642C79.6576 21.7583 79.6753 21.7594 79.6891 21.7526C79.793 21.7028 79.8927 21.6422 80.0002 21.6035C80.1116 21.5633 80.2305 21.5421 80.3465 21.5152C80.4351 21.4946 80.5247 21.4781 80.6144 21.4597C80.6897 21.4445 80.7647 21.4269 80.8407 21.415C80.9106 21.404 80.9819 21.3941 81.0524 21.3938C81.0754 21.3938 81.1002 21.4244 81.1218 21.4436C81.1395 21.4596 81.1538 21.4798 81.1698 21.4981C81.1849 21.4759 81.2077 21.4556 81.2137 21.4308C81.2311 21.358 81.2956 21.3844 81.3381 21.3703C81.3691 21.3602 81.4069 21.3708 81.4421 21.3722C81.4634 21.4844 81.4628 21.4788 81.5794 21.4524C81.6427 21.4382 81.7123 21.4513 81.779 21.4505C81.7994 21.4503 81.8195 21.4461 81.8397 21.4435L81.838 21.4443L81.8364 21.4474Z" fill="#3A31DA"/>
<path d="M87.3259 11.2276C87.3012 11.2374 87.277 11.2472 87.2467 11.2591C87.2642 11.286 87.2742 11.3013 87.2845 11.317C87.2813 11.3221 87.2779 11.3268 87.2747 11.3319C87.2211 11.3089 87.1672 11.2858 87.1135 11.2632L87.1203 11.2398C87.1861 11.2282 87.2515 11.2165 87.3172 11.2048C87.3202 11.2122 87.323 11.2199 87.326 11.2273L87.3259 11.2276Z" fill="#3A31DA"/>
<path d="M82.1594 21.3356C82.1989 21.3309 82.2383 21.3263 82.2777 21.3221C82.2815 21.3304 82.2853 21.3391 82.2888 21.3474C82.2677 21.367 82.2482 21.3994 82.2247 21.4028C82.202 21.406 82.1752 21.3792 82.1499 21.3654C82.1531 21.3555 82.1562 21.3457 82.1593 21.3359L82.1594 21.3356Z" fill="#3A31DA"/>
<path d="M81.8382 21.4472C81.8195 21.4192 81.8005 21.3908 81.767 21.341C81.8166 21.3446 81.8517 21.3468 81.8867 21.3493C81.8703 21.3821 81.8539 21.4145 81.837 21.4473L81.8383 21.4468L81.8382 21.4472Z" fill="#3A31DA"/>
</svg>
