<svg width="100" height="43" viewBox="0 0 100 43" fill="none" xmlns="http://www.w3.org/2000/svg">
<path d="M51.9591 42.6317C44.3446 42.5116 38.6786 42.5011 33.0126 42.3079C26.8954 42.099 20.7936 41.6134 14.8507 39.9321C11.5536 38.9974 8.43605 37.6711 5.76457 35.4362C2.91876 33.0551 1.19076 29.99 0.493403 26.3296C-0.316757 22.0687 -0.198823 17.8496 1.37022 13.7558C2.59059 10.5705 4.72367 8.1529 7.52847 6.33053C10.6717 4.29408 14.1636 3.18708 17.7785 2.41427C21.5524 1.60491 25.3776 1.20284 29.2233 0.962641C38.7709 0.356926 48.3287 0.54491 57.8815 0.586684C62.7117 0.60757 67.5521 0.816435 72.3772 1.09841C77.2279 1.3856 82.0376 2.06964 86.6883 3.61526C89.9289 4.69092 92.9337 6.20521 95.3847 8.70118C97.8972 11.2598 99.2407 14.398 99.738 17.9331C100.138 20.758 100.092 23.583 99.5175 26.3922C98.6151 30.8098 96.2974 34.2404 92.5799 36.6842C89.4469 38.7415 85.9602 39.8642 82.3503 40.6422C78.5764 41.4568 74.7564 41.9476 70.9056 42.0886C63.9423 42.3445 56.979 42.4907 51.9591 42.6264V42.6317Z" fill="#3A31DA"/>
<path d="M70.5477 30.5706C68.2849 30.5706 66.4869 30.0699 65.1535 29.0687C63.8336 28.0674 63.1736 26.5038 63.1736 24.3779V16.5187C63.1736 16.3679 63.2275 16.2376 63.3352 16.1278C63.443 16.0181 63.5709 15.9633 63.7191 15.9633H67.9415C68.0896 15.9633 68.2176 16.0181 68.3253 16.1278C68.4331 16.2376 68.487 16.3679 68.487 16.5187V24.7071C68.487 25.2694 68.6688 25.7015 69.0324 26.0032C69.4096 26.305 69.9146 26.4558 70.5477 26.4558C71.1807 26.4558 71.679 26.305 72.0427 26.0032C72.4198 25.7015 72.6084 25.2694 72.6084 24.7071V16.5187C72.6084 16.3679 72.6622 16.2376 72.77 16.1278C72.8777 16.0181 73.0057 15.9633 73.1539 15.9633H77.3763C77.5244 15.9633 77.6524 16.0181 77.7601 16.1278C77.8679 16.2376 77.9218 16.3679 77.9218 16.5187V24.3779C77.9218 26.5038 77.2551 28.0674 75.9217 29.0687C74.6017 30.0699 72.8104 30.5706 70.5477 30.5706Z" fill="#FFCE00"/>
<path d="M63.7474 29.6447C63.8013 29.727 63.8282 29.8162 63.8282 29.9122C63.8282 30.0356 63.7811 30.1454 63.6868 30.2414C63.606 30.3237 63.505 30.3648 63.3838 30.3648H58.1714C57.8616 30.3648 57.6192 30.2551 57.4441 30.0356L53.9288 25.6123V29.8093C53.9288 29.9602 53.8749 30.0905 53.7672 30.2002C53.6594 30.31 53.5315 30.3648 53.3833 30.3648H49.2215C49.0734 30.3648 48.9454 30.31 48.8376 30.2002C48.7299 30.0905 48.676 29.9602 48.676 29.8093V16.5187C48.676 16.3679 48.7299 16.2376 48.8376 16.1278C48.9454 16.0181 49.0734 15.9633 49.2215 15.9633H53.3833C53.5315 15.9633 53.6594 16.0181 53.7672 16.1278C53.8749 16.2376 53.9288 16.3679 53.9288 16.5187V20.3866L57.1209 16.313C57.3229 16.0798 57.5721 15.9633 57.8684 15.9633H62.7373C62.8585 15.9633 62.9595 16.0113 63.0403 16.1073C63.1346 16.1896 63.1818 16.2924 63.1818 16.4159C63.1818 16.5256 63.1481 16.6216 63.0807 16.7039L58.2926 22.6497L63.7474 29.6447Z" fill="#FFCE00"/>
<path d="M38.9056 12.7949C39.0402 12.7949 39.148 12.8429 39.2288 12.9389C39.3231 13.0212 39.3702 13.131 39.3702 13.2681V14.77C39.3702 14.9072 39.3231 15.0237 39.2288 15.1197C39.148 15.202 39.0402 15.2432 38.9056 15.2432H36.562C36.4273 15.2432 36.3128 15.202 36.2186 15.1197C36.1377 15.0237 36.0973 14.9072 36.0973 14.77V13.2681C36.0973 13.131 36.1377 13.0212 36.2186 12.9389C36.3128 12.8429 36.4273 12.7949 36.562 12.7949H38.9056ZM43.9765 12.7949C44.1112 12.7949 44.2189 12.8429 44.2997 12.9389C44.394 13.0212 44.4412 13.131 44.4412 13.2681V14.77C44.4412 14.9072 44.394 15.0237 44.2997 15.1197C44.2189 15.202 44.1112 15.2432 43.9765 15.2432H41.633C41.4983 15.2432 41.3838 15.202 41.2895 15.1197C41.2087 15.0237 41.1683 14.9072 41.1683 14.77V13.2681C41.1683 13.131 41.2087 13.0212 41.2895 12.9389C41.3838 12.8429 41.4983 12.7949 41.633 12.7949H43.9765ZM47.7747 24.419C47.7747 26.5176 47.0878 28.0674 45.714 29.0687C44.3536 30.0699 42.5354 30.5706 40.2592 30.5706C37.983 30.5706 36.158 30.0699 34.7842 29.0687C33.4238 28.0674 32.7437 26.5038 32.7437 24.3779V21.9502C32.7437 20.5512 33.0669 19.3922 33.7134 18.4733C34.3734 17.5406 35.269 16.8548 36.4004 16.4159C37.5318 15.977 38.818 15.7575 40.2592 15.7575C41.7003 15.7575 42.9798 15.977 44.0977 16.4159C45.2291 16.8548 46.1247 17.5337 46.7847 18.4527C47.4447 19.3716 47.7747 20.5238 47.7747 21.9091V24.419ZM38.1985 24.8099C38.1985 25.3723 38.3803 25.8043 38.7439 26.1061C39.1211 26.4078 39.6261 26.5587 40.2592 26.5587C40.8922 26.5587 41.3905 26.4078 41.7542 26.1061C42.1313 25.7906 42.3199 25.3517 42.3199 24.7894V21.5387C42.3199 20.9764 42.1313 20.5443 41.7542 20.2426C41.3905 19.9271 40.8922 19.7694 40.2592 19.7694C39.6261 19.7694 39.1211 19.9203 38.7439 20.222C38.3803 20.5238 38.1985 20.9558 38.1985 21.5182V24.8099Z" fill="#FFCE00"/>
<path d="M32.0846 15.9633C32.2328 15.9633 32.3608 16.0181 32.4685 16.1278C32.5763 16.2376 32.6301 16.3679 32.6301 16.5187V19.8311C32.6301 19.982 32.5763 20.1123 32.4685 20.222C32.3608 20.3317 32.2328 20.3866 32.0846 20.3866H27.741V29.8093C27.741 29.9602 27.6871 30.0905 27.5794 30.2002C27.4716 30.31 27.3437 30.3648 27.1955 30.3648H23.0337C22.8856 30.3648 22.7576 30.31 22.6499 30.2002C22.5421 30.0905 22.4882 29.9602 22.4882 29.8093V20.3866H18.1446C17.9964 20.3866 17.8685 20.3317 17.7607 20.222C17.653 20.1123 17.5991 19.982 17.5991 19.8311V16.5187C17.5991 16.3679 17.653 16.2376 17.7607 16.1278C17.8685 16.0181 17.9964 15.9633 18.1446 15.9633H32.0846Z" fill="#FFCE00"/>
</svg>
