<svg width="111" height="110" viewBox="0 0 111 110" fill="none" xmlns="http://www.w3.org/2000/svg">
<circle cx="55.1138" cy="55" r="55" fill="#D80000"/>
<path fill-rule="evenodd" clip-rule="evenodd" d="M60.9657 40.0538C67.7272 42.0967 73.5809 46.9909 76.6103 53.9817C81.6895 65.7027 77.0414 79.1884 66.2324 85.4175C68.4004 85.1649 70.569 84.5945 72.6763 83.6813C84.2444 78.6684 89.5583 65.2268 84.5454 53.6588C80.4452 44.1972 70.7058 38.919 60.9657 40.0538ZM58.4782 40.4852C57.664 40.321 56.8397 40.1989 56.0087 40.1202C56.8218 39.8463 57.641 39.6188 58.4633 39.4366C69.3986 37.0133 80.8673 42.5909 85.4867 53.2508C90.725 65.3388 85.1722 79.3845 73.0842 84.6227C70.0961 85.9176 66.9883 86.5531 63.9234 86.5934C63.8249 86.5947 63.7263 86.5954 63.6278 86.5955C62.8723 86.596 62.1198 86.5604 61.3726 86.4897C62.0081 86.2756 62.6399 86.0331 63.2665 85.7616C63.4114 85.6988 63.5554 85.6347 63.6984 85.5694C75.486 80.1868 80.8444 66.3327 75.669 54.3897C72.4421 46.9433 65.873 41.9768 58.4782 40.4852Z" fill="white"/>
<path fill-rule="evenodd" clip-rule="evenodd" d="M62.5802 86.6851C50.1714 85.2805 40.5294 74.7485 40.5294 61.9643C40.5294 56.0754 42.5764 50.663 45.9961 46.4021C34.3117 47.4017 25.1397 57.2028 25.1397 69.1461C25.1397 81.7536 35.3602 91.974 47.9677 91.974C53.5267 91.974 58.6205 89.988 62.5802 86.6851ZM63.6307 85.7529C51.2872 84.8431 41.5553 74.5402 41.5553 61.9643C41.5553 55.9812 43.7581 50.5126 47.3969 46.3252C47.5834 46.1105 47.7737 45.8993 47.9677 45.6915C48.0923 45.5579 48.2185 45.4258 48.3461 45.2951C48.2202 45.2932 48.0941 45.2922 47.9677 45.2922C47.617 45.2922 47.2681 45.2998 46.9211 45.3148C34.2325 45.8625 24.1138 56.3226 24.1138 69.1461C24.1138 82.3202 34.7935 93 47.9677 93C54.142 93 59.7684 90.6542 64.0043 86.8051C64.3562 86.4854 64.6985 86.1553 65.0307 85.8152C64.5607 85.8079 64.0939 85.787 63.6307 85.7529Z" fill="white"/>
<path fill-rule="evenodd" clip-rule="evenodd" d="M54.7108 54.7824C54.7108 50.3911 51.1509 46.8311 46.7595 46.8311V45.8052C51.7175 45.8052 55.7368 49.8244 55.7368 54.7824C55.7368 59.7405 51.7175 63.7597 46.7595 63.7597C44.2346 63.7597 41.9524 62.7167 40.3219 61.0394C40.1244 60.8362 40.129 60.5114 40.3322 60.314C40.5353 60.1165 40.8601 60.1211 41.0576 60.3242C42.5029 61.8111 44.523 62.7337 46.7595 62.7337C51.1509 62.7337 54.7108 59.1738 54.7108 54.7824Z" fill="white"/>
<path fill-rule="evenodd" clip-rule="evenodd" d="M77.0558 54.6128C77.3078 54.7424 77.4071 55.0516 77.2775 55.3036C75.2265 59.2936 69.8038 60.4307 65.2584 58.0942C60.7131 55.7577 58.4818 50.6862 60.5329 46.6962C61.5737 44.6713 63.5023 43.3742 65.7283 42.9018C66.0055 42.843 66.2778 43.02 66.3366 43.2971C66.3955 43.5743 66.2185 43.8466 65.9413 43.9054C63.9682 44.3241 62.3239 45.456 61.4453 47.1652C59.7273 50.5074 61.529 55.0235 65.7275 57.1817C69.926 59.3399 74.647 58.1767 76.3651 54.8345C76.4946 54.5826 76.8038 54.4833 77.0558 54.6128Z" fill="white"/>
<path fill-rule="evenodd" clip-rule="evenodd" d="M63.9785 81.5599C63.9706 80.008 63.4077 78.1694 62.2375 76.4503C61.0674 74.7313 59.5633 73.5333 58.1224 72.9568C56.6745 72.3776 55.4071 72.4587 54.5195 73.0629C53.6319 73.6671 53.0916 74.8164 53.0995 76.3759C53.1074 77.9278 53.6703 79.7664 54.8405 81.4855C56.0106 83.2045 57.5148 84.4025 58.9556 84.9789C60.4035 85.5582 61.6709 85.4771 62.5585 84.8729C63.4461 84.2687 63.9864 83.1193 63.9785 81.5599ZM63.1358 85.721C65.6469 84.0118 65.6244 79.6027 63.0857 75.873C60.5469 72.1433 56.4532 70.5055 53.9422 72.2147C51.4311 73.924 51.4536 78.3331 53.9923 82.0628C56.5311 85.7924 60.6248 87.4303 63.1358 85.721Z" fill="white"/>
<path fill-rule="evenodd" clip-rule="evenodd" d="M50.789 71.9675C52.4888 71.9675 53.8669 70.5895 53.8669 68.8896C53.8669 67.1897 52.4888 65.8117 50.789 65.8117C49.0891 65.8117 47.711 67.1897 47.711 68.8896C47.711 70.5895 49.0891 71.9675 50.789 71.9675ZM50.789 72.9935C53.0555 72.9935 54.8929 71.1561 54.8929 68.8896C54.8929 66.6231 53.0555 64.7857 50.789 64.7857C48.5224 64.7857 46.6851 66.6231 46.6851 68.8896C46.6851 71.1561 48.5224 72.9935 50.789 72.9935Z" fill="white"/>
<path fill-rule="evenodd" clip-rule="evenodd" d="M50.2762 14C50.5595 14 50.7892 14.2297 50.7892 14.513V19.1299C50.7892 23.3796 54.2342 26.8247 58.484 26.8247H62.5879C62.8712 26.8247 63.1008 27.0543 63.1008 27.3377C63.1008 27.621 62.8712 27.8506 62.5879 27.8506H58.484C53.6676 27.8506 49.7632 23.9462 49.7632 19.1299V14.513C49.7632 14.2297 49.9929 14 50.2762 14Z" fill="white"/>
<path fill-rule="evenodd" clip-rule="evenodd" d="M50.2758 40.6753C49.9925 40.6753 49.7628 40.4456 49.7628 40.1623V35.5454C49.7628 31.2957 46.3178 27.8506 42.068 27.8506H37.9641C37.6808 27.8506 37.4512 27.6209 37.4512 27.3376C37.4512 27.0543 37.6808 26.8246 37.9641 26.8246H42.068C46.8844 26.8246 50.7888 30.7291 50.7888 35.5454V40.1623C50.7888 40.4456 50.5591 40.6753 50.2758 40.6753Z" fill="white"/>
<path fill-rule="evenodd" clip-rule="evenodd" d="M50.2758 14C49.9925 14 49.7628 14.2297 49.7628 14.513V19.1299C49.7628 23.3796 46.3178 26.8247 42.068 26.8247H37.9641C37.6808 26.8247 37.4512 27.0543 37.4512 27.3377C37.4512 27.621 37.6808 27.8506 37.9641 27.8506H42.068C46.8844 27.8506 50.7888 23.9462 50.7888 19.1299V14.513C50.7888 14.2297 50.5591 14 50.2758 14Z" fill="white"/>
<path fill-rule="evenodd" clip-rule="evenodd" d="M50.2762 40.6753C50.5595 40.6753 50.7892 40.4456 50.7892 40.1623V35.5454C50.7892 31.2957 54.2342 27.8506 58.484 27.8506H62.5879C62.8712 27.8506 63.1008 27.6209 63.1008 27.3376C63.1008 27.0543 62.8712 26.8246 62.5879 26.8246H58.484C53.6676 26.8246 49.7632 30.7291 49.7632 35.5454V40.1623C49.7632 40.4456 49.9929 40.6753 50.2762 40.6753Z" fill="white"/>
</svg>
