<svg width="21" height="21" viewBox="0 0 21 21" fill="none" xmlns="http://www.w3.org/2000/svg">
<path fill-rule="evenodd" clip-rule="evenodd" d="M15.1203 5.10572C13.803 3.98209 12.1208 3.37783 10.3896 3.40636C8.65834 3.43489 6.99703 4.09424 5.7174 5.26066C4.43777 6.42709 3.62781 8.02041 3.43951 9.74161C3.2512 11.4628 3.69751 13.1936 4.69467 14.6091C4.84845 14.8274 4.87739 15.11 4.77104 15.3549L3.89571 17.3709L6.90943 16.8338C7.06947 16.8052 7.23443 16.8284 7.38043 16.8999C8.93551 17.6613 10.715 17.829 12.385 17.3716C14.0549 16.9141 15.5005 15.863 16.4505 14.4154C17.4005 12.9678 17.7895 11.2232 17.5446 9.50918C17.2997 7.79512 16.4377 6.22935 15.1203 5.10572ZM10.3644 1.87532C12.4685 1.84065 14.5129 2.57505 16.114 3.94069C17.7151 5.30634 18.7628 7.20935 19.0605 9.2926C19.3581 11.3758 18.8853 13.4961 17.7307 15.2555C16.5761 17.0149 14.8191 18.2924 12.7895 18.8484C10.8421 19.3818 8.77209 19.2158 6.93807 18.384L2.75934 19.1288C2.48163 19.1782 2.1992 19.071 2.0243 18.8497C1.84941 18.6284 1.81038 18.3288 1.92273 18.0701L3.20038 15.1276C2.15938 13.4788 1.70435 11.5219 1.91734 9.57508C2.1462 7.48316 3.13062 5.54666 4.68585 4.12901C6.24109 2.71135 8.26023 1.90999 10.3644 1.87532Z" fill="white"/>
<path fill-rule="evenodd" clip-rule="evenodd" d="M7.46177 7.02427C7.6874 6.79864 7.99342 6.67188 8.31251 6.67188C8.63159 6.67188 8.93761 6.79864 9.16325 7.02427C9.38888 7.2499 9.51563 7.55592 9.51563 7.87501V8.75001C9.51563 9.06909 9.38888 9.37511 9.16325 9.60074C9.06034 9.70365 8.94072 9.78598 8.81077 9.84511C8.9842 10.3897 9.28614 10.8906 9.69779 11.3022C10.1094 11.7139 10.6103 12.0158 11.1549 12.1892C11.214 12.0593 11.2964 11.9397 11.3993 11.8368C11.6249 11.6111 11.9309 11.4844 12.25 11.4844H13.125C13.4441 11.4844 13.7501 11.6111 13.9757 11.8368C14.2014 12.0624 14.3281 12.3684 14.3281 12.6875C14.3281 13.0066 14.2014 13.3126 13.9757 13.5382C13.7501 13.7639 13.4441 13.8906 13.125 13.8906H12.25C10.8866 13.8906 9.57909 13.349 8.61504 12.385C7.65098 11.4209 7.10938 10.1134 7.10938 8.75001V7.87501C7.10938 7.55592 7.23614 7.2499 7.46177 7.02427Z" fill="white"/>
</svg>
